<svg xmlns="http://www.w3.org/2000/svg" xmlns:xlink="http://www.w3.org/1999/xlink" width="248" height="212" viewBox="0 0 248 212"><defs><style>.a{fill:#ff6565;}.b{fill:#fdfdfd;}.c{filter:url(#a);}</style><filter id="a" x="0" y="0" width="248" height="212" filterUnits="userSpaceOnUse"><feOffset dx="6" dy="6" input="SourceAlpha"/><feGaussianBlur stdDeviation="5" result="b"/><feFlood flood-opacity="0.639"/><feComposite operator="in" in2="b"/><feComposite in="SourceGraphic"/></filter></defs><g transform="translate(9 9)"><g transform="translate(-1016 -613)"><g class="c" transform="matrix(1, 0, 0, 1, 1007, 604)"><rect class="a" width="218" height="182" rx="35" transform="translate(9 9)"/></g></g><path class="b" d="M81.746,2.25H9.81A9.569,9.569,0,0,0,0,11.554v68.23a9.569,9.569,0,0,0,9.81,9.3H81.746a9.569,9.569,0,0,0,9.81-9.3V11.554A9.569,9.569,0,0,0,81.746,2.25ZM75.206,51.1a2.4,2.4,0,0,1-2.452,2.326h-18.8V71.256A2.4,2.4,0,0,1,51.5,73.582H40.055A2.4,2.4,0,0,1,37.6,71.256V53.423H18.8A2.4,2.4,0,0,1,16.349,51.1V40.242A2.4,2.4,0,0,1,18.8,37.916H37.6V20.083a2.4,2.4,0,0,1,2.452-2.326H51.5a2.4,2.4,0,0,1,2.452,2.326V37.916h18.8a2.4,2.4,0,0,1,2.452,2.326Z" transform="translate(62.95 45)"/></g></svg>